<svg xmlns = "http://www.w3.org/2000/svg" width = "1000" height = "1000">
<g>
<polygon points = "0.330, 995.542 0.330, 995.542 -0.330, 995.542 -0.330, 996.533 0.330, 996.533 "
fill = "none" stroke = "black"/>
</g>
<g>
<polygon points = "0.330, 996.533 0.330, 996.533 -0.330, 996.533 -0.330, 997.524 0.330, 997.524 "
fill = "none" stroke = "black"/>
</g>
<g>
<polygon points = "0.330, 999.505 0.330, 999.505 -0.330, 999.505 -0.330, 1000.991 0.330, 1000.991 "
fill = "none" stroke = "black"/>
</g>
<g>
<polygon points = "0.330, 998.514 0.330, 998.514 -0.330, 998.514 -0.330, 999.505 0.330, 999.505 "
fill = "none" stroke = "black"/>
</g>
<g>
<polygon points = "-0.330, 994.552 0.330, 994.552 0.330, 993.066 -0.330, 993.066 "
fill = "none" stroke = "black"/>
</g>
<g>
<polygon points = "0.330, 997.524 0.330, 997.524 -0.330, 997.524 -0.330, 998.514 0.330, 998.514 "
fill = "none" stroke = "black"/>
</g>
<g>
<polygon points = "0.991, 999.505 0.991, 999.505 0.330, 999.505 0.330, 1000.991 0.991, 1000.991 "
fill = "none" stroke = "black"/>
</g>
<g>
<polygon points = ""
fill = "none" stroke = "black"/>
</g>
<g>
<polygon points = "0.330, 994.552 0.330, 994.552 -0.330, 994.552 -0.330, 995.542 0.330, 995.542 "
fill = "none" stroke = "black"/>
</g>
<g>
<polygon points = "0.991, 996.533 0.991, 996.533 0.330, 996.533 0.330, 997.524 0.991, 997.524 "
fill = "none" stroke = "black"/>
</g>
<g>
<polygon points = "0.991, 997.524 0.991, 997.524 0.330, 997.524 0.330, 998.514 0.991, 998.514 "
fill = "none" stroke = "black"/>
</g>
<g>
<polygon points = "0.991, 994.552 0.991, 994.552 0.330, 994.552 0.330, 995.542 0.991, 995.542 "
fill = "none" stroke = "black"/>
</g>
<g>
<polygon points = "0.330, 994.552 0.991, 994.552 0.991, 993.066 0.330, 993.066 "
fill = "none" stroke = "black"/>
</g>
<g>
<polygon points = "1.652, 999.505 1.652, 999.505 0.991, 999.505 0.991, 1000.991 1.652, 1000.991 "
fill = "none" stroke = "black"/>
</g>
<g>
<polygon points = "1.652, 998.514 1.652, 998.514 0.991, 998.514 0.991, 999.505 1.652, 999.505 "
fill = "none" stroke = "black"/>
</g>
<g>
<polygon points = "1.652, 997.524 1.652, 997.524 0.991, 997.524 0.991, 998.514 1.652, 998.514 "
fill = "none" stroke = "black"/>
</g>
<g>
<polygon points = "1.652, 995.542 1.652, 995.542 0.991, 995.542 0.991, 996.533 1.652, 996.533 "
fill = "none" stroke = "black"/>
</g>
<g>
<polygon points = "0.991, 994.552 1.652, 994.552 1.652, 993.066 0.991, 993.066 "
fill = "none" stroke = "black"/>
</g>
<g>
<polygon points = "1.652, 996.533 1.652, 996.533 0.991, 996.533 0.991, 997.524 1.652, 997.524 "
fill = "none" stroke = "black"/>
</g>
<g>
<polygon points = "2.313, 999.505 2.313, 999.505 1.652, 999.505 1.652, 1000.991 2.313, 1000.991 "
fill = "none" stroke = "black"/>
</g>
<g>
<polygon points = "1.652, 994.552 1.652, 994.552 0.991, 994.552 0.991, 995.542 1.652, 995.542 "
fill = "none" stroke = "black"/>
</g>
<g>
<polygon points = "2.313, 998.514 2.313, 998.514 1.652, 998.514 1.652, 999.505 1.652, 999.505 2.313, 999.505 "
fill = "none" stroke = "black"/>
</g>
<g>
<polygon points = "0.991, 995.542 0.991, 995.542 0.330, 995.542 0.330, 996.533 0.991, 996.533 "
fill = "none" stroke = "black"/>
</g>
<g>
<polygon points = "2.313, 997.524 2.313, 997.524 1.652, 997.524 1.652, 998.514 1.652, 998.514 2.313, 998.514 "
fill = "none" stroke = "black"/>
</g>
<g>
<polygon points = "2.313, 996.533 2.313, 996.533 1.652, 996.533 1.652, 997.524 1.652, 997.524 2.313, 997.524 "
fill = "none" stroke = "black"/>
</g>
<g>
<polygon points = "2.313, 995.542 2.313, 995.542 1.652, 995.542 1.652, 996.533 1.652, 996.533 2.313, 996.533 "
fill = "none" stroke = "black"/>
</g>
<g>
<polygon points = "2.313, 994.552 2.313, 994.552 1.652, 994.552 1.652, 995.542 1.652, 995.542 2.313, 995.542 "
fill = "none" stroke = "black"/>
</g>
<g>
<polygon points = "1.652, 994.552 2.313, 994.552 2.313, 993.066 1.652, 993.066 "
fill = "none" stroke = "black"/>
</g>
<g>
<polygon points = "2.973, 999.505 2.973, 999.505 2.313, 999.505 2.313, 1000.991 2.973, 1000.991 "
fill = "none" stroke = "black"/>
</g>
<g>
<polygon points = "2.973, 997.524 2.973, 997.524 2.313, 997.524 2.313, 998.514 2.313, 998.514 2.973, 998.514 "
fill = "none" stroke = "black"/>
</g>
<g>
<polygon points = "2.973, 998.514 2.973, 998.514 2.313, 998.514 2.313, 999.505 2.313, 999.505 2.973, 999.505 "
fill = "none" stroke = "black"/>
</g>
<g>
<polygon points = "2.973, 996.533 2.973, 996.533 2.313, 996.533 2.313, 997.524 2.313, 997.524 2.973, 997.524 "
fill = "none" stroke = "black"/>
</g>
<g>
<polygon points = "2.973, 995.542 2.973, 995.542 2.313, 995.542 2.313, 996.533 2.313, 996.533 2.973, 996.533 "
fill = "none" stroke = "black"/>
</g>
<g>
<polygon points = "2.313, 994.552 2.973, 994.552 2.973, 993.066 2.313, 993.066 "
fill = "none" stroke = "black"/>
</g>
<g>
<polygon points = "2.973, 994.552 2.973, 994.552 2.313, 994.552 2.313, 995.542 2.313, 995.542 2.973, 995.542 "
fill = "none" stroke = "black"/>
</g>
<g>
<polygon points = "3.634, 999.505 3.634, 999.505 2.973, 999.505 2.973, 1000.991 3.634, 1000.991 "
fill = "none" stroke = "black"/>
</g>
<g>
<polygon points = "3.634, 998.514 3.634, 998.514 2.973, 998.514 2.973, 999.505 3.634, 999.505 "
fill = "none" stroke = "black"/>
</g>
<g>
<polygon points = "3.634, 997.524 3.634, 997.524 2.973, 997.524 2.973, 998.514 3.634, 998.514 "
fill = "none" stroke = "black"/>
</g>
<g>
<polygon points = "3.634, 996.533 3.634, 996.533 2.973, 996.533 2.973, 997.524 3.634, 997.524 "
fill = "none" stroke = "black"/>
</g>
<g>
<polygon points = "3.634, 995.542 3.634, 995.542 2.973, 995.542 2.973, 996.533 3.634, 996.533 "
fill = "none" stroke = "black"/>
</g>
<g>
<polygon points = "2.973, 994.552 2.973, 994.552 3.634, 994.552 3.634, 993.066 2.973, 993.066 "
fill = "none" stroke = "black"/>
</g>
<g>
<polygon points = "3.634, 994.552 3.634, 994.552 2.973, 994.552 2.973, 995.542 3.634, 995.542 "
fill = "none" stroke = "black"/>
</g>
<g>
<polygon points = "4.295, 999.505 4.295, 999.505 3.634, 999.505 3.634, 1000.991 4.295, 1000.991 "
fill = "none" stroke = "black"/>
</g>
<g>
<polygon points = "4.295, 998.514 4.295, 998.514 3.634, 998.514 3.634, 999.505 4.295, 999.505 "
fill = "none" stroke = "black"/>
</g>
<g>
<polygon points = "4.295, 996.533 4.295, 996.533 3.634, 996.533 3.634, 997.524 4.295, 997.524 "
fill = "none" stroke = "black"/>
</g>
<g>
<polygon points = "4.295, 997.524 4.295, 997.524 3.634, 997.524 3.634, 998.514 4.295, 998.514 "
fill = "none" stroke = "black"/>
</g>
<g>
<polygon points = "4.295, 995.542 4.295, 995.542 3.634, 995.542 3.634, 996.533 4.295, 996.533 "
fill = "none" stroke = "black"/>
</g>
<g>
<polygon points = "4.295, 994.552 4.295, 994.552 3.634, 994.552 3.634, 995.542 4.295, 995.542 "
fill = "none" stroke = "black"/>
</g>
<g>
<polygon points = "3.634, 994.552 4.295, 994.552 4.295, 993.066 3.634, 993.066 "
fill = "none" stroke = "black"/>
</g>
<g>
<polygon points = "4.955, 999.505 4.955, 999.505 4.295, 999.505 4.295, 1000.991 4.955, 1000.991 "
fill = "none" stroke = "black"/>
</g>
<g>
<polygon points = "4.955, 998.514 4.955, 998.514 4.295, 998.514 4.295, 999.505 4.955, 999.505 "
fill = "none" stroke = "black"/>
</g>
<g>
<polygon points = "4.955, 996.533 4.955, 996.533 4.295, 996.533 4.295, 997.524 4.955, 997.524 "
fill = "none" stroke = "black"/>
</g>
<g>
<polygon points = "4.955, 995.542 4.955, 995.542 4.295, 995.542 4.295, 996.533 4.955, 996.533 "
fill = "none" stroke = "black"/>
</g>
<g>
<polygon points = "4.955, 994.552 4.955, 994.552 4.295, 994.552 4.295, 995.542 4.955, 995.542 "
fill = "none" stroke = "black"/>
</g>
<g>
<polygon points = "4.295, 994.552 4.295, 994.552 4.955, 994.552 4.955, 993.066 4.295, 993.066 "
fill = "none" stroke = "black"/>
</g>
<g>
<polygon points = "5.616, 999.505 5.616, 999.505 4.955, 999.505 4.955, 1000.991 5.616, 1000.991 "
fill = "none" stroke = "black"/>
</g>
<g>
<polygon points = "5.616, 998.514 5.616, 998.514 4.955, 998.514 4.955, 999.505 5.616, 999.505 "
fill = "none" stroke = "black"/>
</g>
<g>
<polygon points = "5.616, 997.524 5.616, 997.524 4.955, 997.524 4.955, 998.514 5.616, 998.514 "
fill = "none" stroke = "black"/>
</g>
<g>
<polygon points = "5.616, 996.533 5.616, 996.533 4.955, 996.533 4.955, 997.524 5.616, 997.524 "
fill = "none" stroke = "black"/>
</g>
<g>
<polygon points = "5.616, 995.542 5.616, 995.542 4.955, 995.542 4.955, 996.533 5.616, 996.533 "
fill = "none" stroke = "black"/>
</g>
<g>
<polygon points = "5.616, 994.552 5.616, 994.552 4.955, 994.552 4.955, 995.542 5.616, 995.542 "
fill = "none" stroke = "black"/>
</g>
<g>
<polygon points = "5.616, 999.505 5.616, 1000.991 6.277, 1000.991 6.277, 999.505 "
fill = "none" stroke = "black"/>
</g>
<g>
<polygon points = ""
fill = "none" stroke = "black"/>
</g>
<g>
<polygon points = "5.616, 998.514 5.616, 999.505 5.616, 999.505 6.277, 999.505 6.277, 998.514 "
fill = "none" stroke = "black"/>
</g>
<g>
<polygon points = "5.616, 997.524 5.616, 998.514 5.616, 998.514 6.277, 998.514 6.277, 997.524 "
fill = "none" stroke = "black"/>
</g>
<g>
<polygon points = "5.616, 996.533 5.616, 997.524 5.616, 997.524 6.277, 997.524 6.277, 996.533 "
fill = "none" stroke = "black"/>
</g>
<g>
<polygon points = "5.616, 995.542 5.616, 996.533 5.616, 996.533 6.277, 996.533 6.277, 995.542 "
fill = "none" stroke = "black"/>
</g>
<g>
<polygon points = "5.616, 994.552 5.616, 995.542 5.616, 995.542 6.277, 995.542 6.277, 994.552 "
fill = "none" stroke = "black"/>
</g>
<g>
<polygon points = "5.616, 994.552 6.277, 994.552 6.277, 993.066 5.616, 993.066 "
fill = "none" stroke = "black"/>
</g>
</svg>
